<?xml version="1.0" encoding="UTF-8" standalone="no"?>
<!-- Created with Inkscape (http://www.inkscape.org/) -->

<svg
   version="1.1"
   id="svg1"
   width="880"
   height="880"
   viewBox="0 0 880 880"
   sodipodi:docname="hand-gesture-rock-paper-scissors.svg"
   inkscape:version="1.3.2 (091e20e, 2023-11-25, custom)"
   xmlns:inkscape="http://www.inkscape.org/namespaces/inkscape"
   xmlns:sodipodi="http://sodipodi.sourceforge.net/DTD/sodipodi-0.dtd"
   xmlns="http://www.w3.org/2000/svg"
   xmlns:svg="http://www.w3.org/2000/svg">
  <defs
     id="defs1">
    <clipPath
       clipPathUnits="userSpaceOnUse"
       id="clipPath6">
      <path
         d="M 0,660 H 660 V 0 H 0 Z"
         transform="translate(-141.4683,-549.59722)"
         id="path6" />
    </clipPath>
    <clipPath
       clipPathUnits="userSpaceOnUse"
       id="clipPath8">
      <path
         d="M 0,660 H 660 V 0 H 0 Z"
         transform="translate(-141.4683,-515.11672)"
         id="path8" />
    </clipPath>
    <clipPath
       clipPathUnits="userSpaceOnUse"
       id="clipPath10">
      <path
         d="M 0,660 H 660 V 0 H 0 Z"
         transform="translate(-276.98391,-559.32232)"
         id="path10" />
    </clipPath>
    <clipPath
       clipPathUnits="userSpaceOnUse"
       id="clipPath12">
      <path
         d="M 0,660 H 660 V 0 H 0 Z"
         transform="translate(-175.9473,-489.47951)"
         id="path12" />
    </clipPath>
    <clipPath
       clipPathUnits="userSpaceOnUse"
       id="clipPath14">
      <path
         d="M 0,660 H 660 V 0 H 0 Z"
         transform="translate(-284.1484,-526.61081)"
         id="path14" />
    </clipPath>
    <clipPath
       clipPathUnits="userSpaceOnUse"
       id="clipPath16">
      <path
         d="M 0,660 H 660 V 0 H 0 Z"
         transform="translate(-276.98391,-492.35161)"
         id="path16" />
    </clipPath>
    <clipPath
       clipPathUnits="userSpaceOnUse"
       id="clipPath18">
      <path
         d="M 0,660 H 660 V 0 H 0 Z"
         transform="translate(-267.1519,-461.18751)"
         id="path18" />
    </clipPath>
    <clipPath
       clipPathUnits="userSpaceOnUse"
       id="clipPath20">
      <path
         d="M 0,660 H 660 V 0 H 0 Z"
         transform="translate(-235.49661,-581.86721)"
         id="path20" />
    </clipPath>
    <clipPath
       clipPathUnits="userSpaceOnUse"
       id="clipPath22">
      <path
         d="M 0,660 H 660 V 0 H 0 Z"
         transform="translate(-235.4956,-515.11672)"
         id="path22" />
    </clipPath>
    <clipPath
       clipPathUnits="userSpaceOnUse"
       id="clipPath24">
      <path
         d="M 0,660 H 660 V 0 H 0 Z"
         transform="translate(-369.07031,-222.9199)"
         id="path24" />
    </clipPath>
    <clipPath
       clipPathUnits="userSpaceOnUse"
       id="clipPath26">
      <path
         d="M 0,660 H 660 V 0 H 0 Z"
         transform="translate(-382.83501,-190.209)"
         id="path26" />
    </clipPath>
    <clipPath
       clipPathUnits="userSpaceOnUse"
       id="clipPath28">
      <path
         d="M 0,660 H 660 V 0 H 0 Z"
         transform="translate(-369.07031,-155.9502)"
         id="path28" />
    </clipPath>
    <clipPath
       clipPathUnits="userSpaceOnUse"
       id="clipPath30">
      <path
         d="M 0,660 H 660 V 0 H 0 Z"
         transform="translate(-350.17581,-124.78521)"
         id="path30" />
    </clipPath>
    <clipPath
       clipPathUnits="userSpaceOnUse"
       id="clipPath32">
      <path
         d="M 0,660 H 660 V 0 H 0 Z"
         id="path32" />
    </clipPath>
    <clipPath
       clipPathUnits="userSpaceOnUse"
       id="clipPath34">
      <path
         d="M 0,660 H 660 V 0 H 0 Z"
         id="path34" />
    </clipPath>
    <clipPath
       clipPathUnits="userSpaceOnUse"
       id="clipPath36">
      <path
         d="M 0,660 H 660 V 0 H 0 Z"
         transform="translate(-141.4683,-213.19531)"
         id="path36" />
    </clipPath>
    <clipPath
       clipPathUnits="userSpaceOnUse"
       id="clipPath38">
      <path
         d="M 0,660 H 660 V 0 H 0 Z"
         transform="translate(-141.4683,-178.7158)"
         id="path38" />
    </clipPath>
    <clipPath
       clipPathUnits="userSpaceOnUse"
       id="clipPath40">
      <path
         d="M 0,660 H 660 V 0 H 0 Z"
         transform="translate(-175.9473,-153.0771)"
         id="path40" />
    </clipPath>
    <clipPath
       clipPathUnits="userSpaceOnUse"
       id="clipPath42">
      <path
         d="M 0,660 H 660 V 0 H 0 Z"
         transform="translate(-235.49661,-245.46481)"
         id="path42" />
    </clipPath>
    <clipPath
       clipPathUnits="userSpaceOnUse"
       id="clipPath44">
      <path
         d="M 0,660 H 660 V 0 H 0 Z"
         transform="translate(-235.4956,-178.7158)"
         id="path44" />
    </clipPath>
    <clipPath
       clipPathUnits="userSpaceOnUse"
       id="clipPath46">
      <path
         d="M 0,660 H 660 V 0 H 0 Z"
         transform="translate(-296.96971,-399.95211)"
         id="path46" />
    </clipPath>
    <clipPath
       clipPathUnits="userSpaceOnUse"
       id="clipPath48">
      <path
         d="M 0,660 H 660 V 0 H 0 Z"
         transform="translate(-288.35061,-319.77051)"
         id="path48" />
    </clipPath>
    <clipPath
       clipPathUnits="userSpaceOnUse"
       id="clipPath50">
      <path
         d="M 0,660 H 660 V 0 H 0 Z"
         id="path50" />
    </clipPath>
    <clipPath
       clipPathUnits="userSpaceOnUse"
       id="clipPath52">
      <path
         d="M 0,660 H 660 V 0 H 0 Z"
         id="path52" />
    </clipPath>
    <clipPath
       clipPathUnits="userSpaceOnUse"
       id="clipPath54">
      <path
         d="M 0,660 H 660 V 0 H 0 Z"
         transform="translate(-519.87112,-370.56451)"
         id="path54" />
    </clipPath>
    <clipPath
       clipPathUnits="userSpaceOnUse"
       id="clipPath56">
      <path
         d="M 0,660 H 660 V 0 H 0 Z"
         transform="translate(-519.87112,-336.08401)"
         id="path56" />
    </clipPath>
    <clipPath
       clipPathUnits="userSpaceOnUse"
       id="clipPath58">
      <path
         d="M 0,660 H 660 V 0 H 0 Z"
         transform="translate(-485.39261,-310.44531)"
         id="path58" />
    </clipPath>
    <clipPath
       clipPathUnits="userSpaceOnUse"
       id="clipPath60">
      <path
         d="M 0,660 H 660 V 0 H 0 Z"
         transform="translate(-384.35551,-313.31841)"
         id="path60" />
    </clipPath>
    <clipPath
       clipPathUnits="userSpaceOnUse"
       id="clipPath62">
      <path
         d="M 0,660 H 660 V 0 H 0 Z"
         transform="translate(-394.18751,-282.15331)"
         id="path62" />
    </clipPath>
    <clipPath
       clipPathUnits="userSpaceOnUse"
       id="clipPath64">
      <path
         d="M 0,660 H 660 V 0 H 0 Z"
         transform="translate(-425.84381,-402.83301)"
         id="path64" />
    </clipPath>
    <clipPath
       clipPathUnits="userSpaceOnUse"
       id="clipPath66">
      <path
         d="M 0,660 H 660 V 0 H 0 Z"
         transform="translate(-425.84381,-336.08401)"
         id="path66" />
    </clipPath>
  </defs>
  <sodipodi:namedview
     id="namedview1"
     pagecolor="#ffffff"
     bordercolor="#000000"
     borderopacity="0.25"
     inkscape:showpageshadow="2"
     inkscape:pageopacity="0.0"
     inkscape:pagecheckerboard="0"
     inkscape:deskcolor="#d1d1d1"
     inkscape:zoom="0.69318182"
     inkscape:cx="439.27869"
     inkscape:cy="440"
     inkscape:window-width="1440"
     inkscape:window-height="830"
     inkscape:window-x="-6"
     inkscape:window-y="-6"
     inkscape:window-maximized="1"
     inkscape:current-layer="g1">
    <inkscape:page
       x="0"
       y="0"
       inkscape:label="1"
       id="page1"
       width="880"
       height="880"
       margin="1.3333334 0 0.44933334 1.7852"
       bleed="0" />
  </sodipodi:namedview>
  <g
     id="g1"
     inkscape:groupmode="layer"
     inkscape:label="1">
    <g
       id="group-MC0">
      <path
         id="path2"
         d="M 1.339,1 H 660 V 659.662 H 1.339 Z"
         style="fill:#332d2a;fill-opacity:1;fill-rule:nonzero;stroke:none"
         transform="matrix(1.3333333,0,0,-1.3333333,0,880)" />
      <path
         id="path3"
         d="m 175.949,420.52 h 96.146 v 127.089 h -96.146 z"
         style="fill:#e68f63;fill-opacity:1;fill-rule:evenodd;stroke:none"
         transform="matrix(1.3333333,0,0,-1.3333333,0,880)" />
      <path
         id="path4"
         d="M 1.339,429.14 H 160.918 V 534.348 H 1.339 Z"
         style="fill:#e68f63;fill-opacity:1;fill-rule:evenodd;stroke:none"
         transform="matrix(1.3333333,0,0,-1.3333333,0,880)" />
      <path
         id="path5"
         d="m 0,0 h 34.48 c 18.964,0 34.479,-15.516 34.479,-34.479 v -10e-4 c 0,-18.965 -15.515,-34.479 -34.479,-34.479 H 34.479 C 15.516,-68.959 0,-53.445 0,-34.48 Z"
         style="fill:#f29d72;fill-opacity:1;fill-rule:evenodd;stroke:none"
         transform="matrix(1.3333333,0,0,-1.3333333,188.6244,147.20373)"
         clip-path="url(#clipPath6)" />
      <path
         id="path7"
         d="M 0,0 H 40.668 V 66.75 H 20.334 C 9.15,66.75 0,57.599 0,46.417 Z"
         style="fill:#f29d72;fill-opacity:1;fill-rule:evenodd;stroke:none"
         transform="matrix(1.3333333,0,0,-1.3333333,188.6244,193.17773)"
         clip-path="url(#clipPath8)" />
      <path
         id="path9"
         d="m 0,0 h -33.574 c -11.183,0 -20.333,-9.15 -20.333,-20.334 v -0.001 c 0,-11.183 9.15,-20.333 20.333,-20.333 H 0 c 11.184,0 20.334,9.15 20.334,20.333 v 0.001 C 20.334,-9.15 11.184,0 0,0"
         style="fill:#f5b290;fill-opacity:1;fill-rule:evenodd;stroke:none"
         transform="matrix(1.3333333,0,0,-1.3333333,369.31187,134.23693)"
         clip-path="url(#clipPath10)" />
      <path
         id="path11"
         d="M 0,0 H 0.001 C 18.965,0 34.48,-15.516 34.48,-34.48 v -0.002 C 34.48,-53.445 18.965,-68.96 0.001,-68.96 H 0 c -18.963,0 -34.479,15.515 -34.479,34.478 v 0.002 C -34.479,-15.516 -18.963,0 0,0"
         style="fill:#f29d72;fill-opacity:1;fill-rule:evenodd;stroke:none"
         transform="matrix(1.3333333,0,0,-1.3333333,234.5964,227.36067)"
         clip-path="url(#clipPath12)" />
      <path
         id="path13"
         d="m 0,0 h -42.105 c -11.184,0 -20.333,-9.151 -20.333,-20.335 0,-11.183 9.149,-20.333 20.333,-20.333 H 0 c 11.184,0 20.334,9.15 20.334,20.333 C 20.334,-9.151 11.184,0 0,0"
         style="fill:#f5b290;fill-opacity:1;fill-rule:evenodd;stroke:none"
         transform="matrix(1.3333333,0,0,-1.3333333,378.86453,177.85227)"
         clip-path="url(#clipPath14)" />
      <path
         id="path15"
         d="m 0,0 h -33.574 c -11.183,0 -20.333,-9.15 -20.333,-20.333 v -0.001 c 0,-11.183 9.15,-20.334 20.333,-20.334 H 0 c 11.184,0 20.334,9.151 20.334,20.334 v 0.001 C 20.334,-9.15 11.184,0 0,0"
         style="fill:#f5b290;fill-opacity:1;fill-rule:evenodd;stroke:none"
         transform="matrix(1.3333333,0,0,-1.3333333,369.31187,223.5312)"
         clip-path="url(#clipPath16)" />
      <path
         id="path17"
         d="m 0,0 h -23.742 c -11.183,0 -20.333,-9.151 -20.333,-20.334 v -0.001 c 0,-11.183 9.15,-20.333 20.333,-20.333 H 0 c 11.184,0 20.334,9.15 20.334,20.333 v 0.001 C 20.334,-9.151 11.184,0 0,0"
         style="fill:#f5b290;fill-opacity:1;fill-rule:evenodd;stroke:none"
         transform="matrix(1.3333333,0,0,-1.3333333,356.20253,265.08333)"
         clip-path="url(#clipPath18)" />
      <path
         id="path19"
         d="M 0,0 H -60.121 C -71.304,0 -80.454,-9.151 -80.454,-20.334 V -40.669 H 20.333 v 20.335 C 20.333,-9.151 11.183,0 0,0"
         style="fill:#f29d72;fill-opacity:1;fill-rule:evenodd;stroke:none"
         transform="matrix(1.3333333,0,0,-1.3333333,313.99547,104.17707)"
         clip-path="url(#clipPath20)" />
      <path
         id="path21"
         d="m 0,0 v 0 c -11.184,0 -20.334,9.151 -20.334,20.334 v 26.083 c 0,11.182 9.15,20.333 20.334,20.333 11.184,0 20.334,-9.151 20.334,-20.333 V 20.334 C 20.334,9.151 11.184,0 0,0"
         style="fill:#f29d72;fill-opacity:1;fill-rule:evenodd;stroke:none"
         transform="matrix(1.3333333,0,0,-1.3333333,313.99413,193.17773)"
         clip-path="url(#clipPath22)" />
      <path
         id="path23"
         d="m 0,0 h -101.987 c -11.184,0 -20.334,-9.15 -20.334,-20.333 v -0.001 c 0,-11.183 9.15,-20.334 20.334,-20.334 H 0 c 11.184,0 20.334,9.151 20.334,20.334 v 0.001 C 20.334,-9.15 11.184,0 0,0"
         style="fill:#f29d72;fill-opacity:1;fill-rule:evenodd;stroke:none"
         transform="matrix(1.3333333,0,0,-1.3333333,492.09373,582.77347)"
         clip-path="url(#clipPath24)" />
      <path
         id="path25"
         d="m 0,0 h -118.379 c -11.182,0 -20.333,-9.15 -20.333,-20.333 v -0.003 c 0,-11.183 9.151,-20.332 20.333,-20.332 H 0 c 11.184,0 20.333,9.149 20.333,20.332 v 0.003 C 20.333,-9.15 11.184,0 0,0"
         style="fill:#f29d72;fill-opacity:1;fill-rule:evenodd;stroke:none"
         transform="matrix(1.3333333,0,0,-1.3333333,510.44667,626.388)"
         clip-path="url(#clipPath26)" />
      <path
         id="path27"
         d="m 0,0 h -101.987 c -11.184,0 -20.334,-9.15 -20.334,-20.334 0,-11.185 9.15,-20.334 20.334,-20.334 H 0 c 11.184,0 20.334,9.149 20.334,20.334 C 20.334,-9.15 11.184,0 0,0"
         style="fill:#f29d72;fill-opacity:1;fill-rule:evenodd;stroke:none"
         transform="matrix(1.3333333,0,0,-1.3333333,492.09373,672.0664)"
         clip-path="url(#clipPath28)" />
      <path
         id="path29"
         d="m 0,0 h -83.093 c -11.182,0 -20.334,-9.15 -20.334,-20.333 v -0.001 c 0,-11.184 9.152,-20.334 20.334,-20.334 H 0 c 11.184,0 20.333,9.15 20.333,20.334 v 0.001 C 20.333,-9.15 11.184,0 0,0"
         style="fill:#f29d72;fill-opacity:1;fill-rule:evenodd;stroke:none"
         transform="matrix(1.3333333,0,0,-1.3333333,466.90107,713.61973)"
         clip-path="url(#clipPath30)" />
      <path
         id="path31"
         d="m 175.949,84.117 h 96.146 V 222.92 h -96.146 z"
         style="fill:#e68f63;fill-opacity:1;fill-rule:evenodd;stroke:none"
         transform="matrix(1.3333333,0,0,-1.3333333,0,880)"
         clip-path="url(#clipPath32)" />
      <path
         id="path33"
         d="M 1.339,92.738 H 160.918 V 197.944 H 1.339 Z"
         style="fill:#e68f63;fill-opacity:1;fill-rule:evenodd;stroke:none"
         transform="matrix(1.3333333,0,0,-1.3333333,0,880)"
         clip-path="url(#clipPath34)" />
      <path
         id="path35"
         d="m 0,0 h 34.48 c 18.964,0 34.479,-15.516 34.479,-34.48 v 0 c 0,-18.964 -15.515,-34.479 -34.479,-34.479 H 34.479 C 15.516,-68.959 0,-53.444 0,-34.48 Z"
         style="fill:#f29d72;fill-opacity:1;fill-rule:evenodd;stroke:none"
         transform="matrix(1.3333333,0,0,-1.3333333,188.6244,595.7396)"
         clip-path="url(#clipPath36)" />
      <path
         id="path37"
         d="M 0,0 H 40.668 V 66.749 H 20.334 C 9.15,66.749 0,57.599 0,46.416 Z"
         style="fill:#f29d72;fill-opacity:1;fill-rule:evenodd;stroke:none"
         transform="matrix(1.3333333,0,0,-1.3333333,188.6244,641.71227)"
         clip-path="url(#clipPath38)" />
      <path
         id="path39"
         d="M 0,0 H 0.001 C 18.965,0 34.48,-15.516 34.48,-34.479 v -0.002 C 34.48,-53.445 18.965,-68.96 0.001,-68.96 H 0 c -18.963,0 -34.479,15.515 -34.479,34.479 v 0.002 C -34.479,-15.516 -18.963,0 0,0"
         style="fill:#f29d72;fill-opacity:1;fill-rule:evenodd;stroke:none"
         transform="matrix(1.3333333,0,0,-1.3333333,234.5964,675.8972)"
         clip-path="url(#clipPath40)" />
      <path
         id="path41"
         d="M 0,0 H -60.121 C -71.304,0 -80.454,-9.15 -80.454,-20.333 V -40.668 H 20.333 v 20.335 C 20.333,-9.15 11.183,0 0,0"
         style="fill:#f29d72;fill-opacity:1;fill-rule:evenodd;stroke:none"
         transform="matrix(1.3333333,0,0,-1.3333333,313.99547,552.7136)"
         clip-path="url(#clipPath42)" />
      <path
         id="path43"
         d="m 0,0 v 0 c -11.184,0 -20.334,9.149 -20.334,20.334 v 26.082 c 0,11.183 9.15,20.333 20.334,20.333 11.184,0 20.334,-9.15 20.334,-20.333 V 20.334 C 20.334,9.149 11.184,0 0,0"
         style="fill:#f29d72;fill-opacity:1;fill-rule:evenodd;stroke:none"
         transform="matrix(1.3333333,0,0,-1.3333333,313.99413,641.71227)"
         clip-path="url(#clipPath44)" />
      <path
         id="path45"
         d="m 0,0 122.927,-26.065 c 10.941,-2.322 17.994,-13.169 15.673,-24.11 v -0.001 c -2.319,-10.94 -13.166,-17.993 -24.108,-15.673 L -8.435,-39.783 c -10.941,2.32 -17.994,13.169 -15.674,24.109 v 10e-4 C -21.789,-4.733 -10.941,2.32 0,0"
         style="fill:#f29d72;fill-opacity:1;fill-rule:evenodd;stroke:none"
         transform="matrix(1.3333333,0,0,-1.3333333,395.9596,346.73053)"
         clip-path="url(#clipPath46)" />
      <path
         id="path47"
         d="m 0,0 138.418,25.752 c 10.993,2.044 21.664,-5.278 23.708,-16.272 2.045,-10.996 -5.276,-21.665 -16.27,-23.71 L 7.438,-39.981 c -10.993,-2.046 -21.663,5.276 -23.708,16.271 v 0.001 C -18.316,-12.714 -10.994,-2.045 0,0"
         style="fill:#f29d72;fill-opacity:1;fill-rule:evenodd;stroke:none"
         transform="matrix(1.3333333,0,0,-1.3333333,384.46747,453.63933)"
         clip-path="url(#clipPath48)" />
      <path
         id="path49"
         d="m 389.245,241.485 h 96.147 v 138.803 h -96.147 z"
         style="fill:#e68f63;fill-opacity:1;fill-rule:evenodd;stroke:none"
         transform="matrix(1.3333333,0,0,-1.3333333,0,880)"
         clip-path="url(#clipPath50)" />
      <path
         id="path51"
         d="M 500.421,250.106 H 660 V 355.313 H 500.421 Z"
         style="fill:#e68f63;fill-opacity:1;fill-rule:evenodd;stroke:none"
         transform="matrix(1.3333333,0,0,-1.3333333,0,880)"
         clip-path="url(#clipPath52)" />
      <path
         id="path53"
         d="m 0,0 h -34.48 c -18.963,0 -34.479,-15.516 -34.479,-34.48 v -0.001 c 0,-18.964 15.516,-34.479 34.479,-34.479 h 10e-4 C -15.516,-68.96 0,-53.445 0,-34.481 Z"
         style="fill:#f29d72;fill-opacity:1;fill-rule:evenodd;stroke:none"
         transform="matrix(1.3333333,0,0,-1.3333333,693.16147,385.914)"
         clip-path="url(#clipPath54)" />
      <path
         id="path55"
         d="m 0,0 h -40.668 v 66.749 h 20.335 C -9.149,66.749 0,57.599 0,46.416 Z"
         style="fill:#f29d72;fill-opacity:1;fill-rule:evenodd;stroke:none"
         transform="matrix(1.3333333,0,0,-1.3333333,693.16147,431.888)"
         clip-path="url(#clipPath56)" />
      <path
         id="path57"
         d="M 0,0 H -0.002 C -18.965,0 -34.48,-15.516 -34.48,-34.479 v -10e-4 c 0,-18.965 15.515,-34.48 34.478,-34.48 H 0 c 18.963,0 34.479,15.515 34.479,34.48 v 10e-4 C 34.479,-15.516 18.963,0 0,0"
         style="fill:#f29d72;fill-opacity:1;fill-rule:evenodd;stroke:none"
         transform="matrix(1.3333333,0,0,-1.3333333,647.19013,466.07293)"
         clip-path="url(#clipPath58)" />
      <path
         id="path59"
         d="m 0,0 h 33.574 c 11.184,0 20.333,-9.151 20.333,-20.334 v -0.001 c 0,-11.183 -9.149,-20.333 -20.333,-20.333 H 0 c -11.184,0 -20.334,9.15 -20.334,20.333 v 0.001 C -20.334,-9.151 -11.184,0 0,0"
         style="fill:#f5b290;fill-opacity:1;fill-rule:evenodd;stroke:none"
         transform="matrix(1.3333333,0,0,-1.3333333,512.474,462.24213)"
         clip-path="url(#clipPath60)" />
      <path
         id="path61"
         d="m 0,0 h 23.742 c 11.184,0 20.333,-9.15 20.333,-20.333 v -0.002 c 0,-11.183 -9.149,-20.333 -20.333,-20.333 H 0 c -11.183,0 -20.333,9.15 -20.333,20.333 v 0.002 C -20.333,-9.15 -11.183,0 0,0"
         style="fill:#f5b290;fill-opacity:1;fill-rule:evenodd;stroke:none"
         transform="matrix(1.3333333,0,0,-1.3333333,525.58333,503.7956)"
         clip-path="url(#clipPath62)" />
      <path
         id="path63"
         d="M 0,0 H 60.12 C 71.304,0 80.453,-9.15 80.453,-20.333 V -40.668 H -20.333 v 20.335 C -20.333,-9.15 -11.184,0 0,0"
         style="fill:#f29d72;fill-opacity:1;fill-rule:evenodd;stroke:none"
         transform="matrix(1.3333333,0,0,-1.3333333,567.79173,342.88933)"
         clip-path="url(#clipPath64)" />
      <path
         id="path65"
         d="m 0,0 v 0 c 11.184,0 20.335,9.15 20.335,20.334 v 26.082 c 0,11.183 -9.151,20.333 -20.335,20.333 -11.184,0 -20.333,-9.15 -20.333,-20.333 V 20.334 C -20.333,9.15 -11.184,0 0,0"
         style="fill:#f29d72;fill-opacity:1;fill-rule:evenodd;stroke:none"
         transform="matrix(1.3333333,0,0,-1.3333333,567.79173,431.888)"
         clip-path="url(#clipPath66)" />
    </g>
  </g>
</svg>
