<?xml version="1.0" encoding="UTF-8"?>
<svg version="1.1" xmlns="http://www.w3.org/2000/svg" width="320" height="320" viewBox="0 0 320 320">
<g transform="translate(19 14)">
<path d="M0 0 C93.06 0 186.12 0 282 0 C282 96.36 282 192.72 282 292 C188.94 292 95.88 292 0 292 C0 195.64 0 99.28 0 0 Z " fill="#312927" transform="translate(0,0)"/>
<path d="M0 0 C3.57048763 1.55768132 5.40060956 3.75819751 7.10546875 7.2902832 C8.11026065 10.33400189 8.38296649 12.96764078 8.5625 16.16796875 C8.67295654 18.06216553 8.67295654 18.06216553 8.78564453 19.99462891 C8.85750847 21.39223147 8.92894692 22.78985597 9 24.1875 C9.0802629 25.64764041 9.16083827 27.10776368 9.24169922 28.56787109 C10.41704009 50.36557221 11.18373449 72.18653051 12 94 C13.65 94.33 15.3 94.66 17 95 C16.98912354 93.99283936 16.97824707 92.98567871 16.96704102 91.94799805 C16.87828686 79.64968853 17.28362193 67.39006355 17.79956055 55.10375977 C17.93773202 51.80696396 18.06987563 48.50996669 18.20117188 45.21289062 C18.40913464 40.04546483 18.63964442 34.87940203 18.88104248 29.71343994 C18.98905178 27.24973066 19.07290504 24.78663733 19.14892578 22.32177734 C19.20398795 20.989226 19.25974749 19.65670317 19.31640625 18.32421875 C19.3532251 17.22553467 19.39004395 16.12685059 19.42797852 14.99487305 C20.30381714 10.40933639 22.64301493 7.23362279 26.0625 4.125 C30.68454489 2.35485515 35.11938901 2.3478185 40 3 C44.00241148 5.00120574 46.77086781 7.12297066 49 11 C49.28390522 13.81768302 49.3747611 16.37318398 49.3125 19.1875 C49.29775635 20.47889893 49.29775635 20.47889893 49.28271484 21.79638672 C49.0643433 33.63538999 48.21183492 45.45719421 47.43531799 57.2701416 C46.92248953 65.0992758 46.46417911 72.9314498 46.00872803 80.76409912 C45.83527719 83.74522108 45.66033743 86.72625488 45.4854126 89.70729065 C45.32325854 92.47150664 45.16160938 95.23575211 45 98 C45.66 98 46.32 98 47 98 C47.10957031 97.28457031 47.21914062 96.56914063 47.33203125 95.83203125 C48.55763782 88.12964197 50.16239997 80.57782587 52 73 C52.26039063 71.89527344 52.52078125 70.79054688 52.7890625 69.65234375 C53.04429687 68.59144531 53.29953125 67.53054687 53.5625 66.4375 C53.79066406 65.48746094 54.01882812 64.53742188 54.25390625 63.55859375 C54.9505631 61.16953492 55.8866958 59.21288464 57 57 C57.37223867 55.57870997 57.69209237 54.14290627 57.96484375 52.69921875 C58.12533203 51.88646484 58.28582031 51.07371094 58.45117188 50.23632812 C58.77309611 48.54913485 59.09343205 46.86163768 59.41210938 45.17382812 C60.62612203 39.04572442 61.93894212 33.43579568 66.0625 28.5625 C70.88869912 25.99537281 75.80762558 26.21399872 81.0625 27.5078125 C85.25885801 29.08144675 87.87107676 31.08278124 90 35 C90.64713146 40.96359967 89.70230775 46.65576924 88.3125 52.4375 C88.13315918 53.21262939 87.95381836 53.98775879 87.76904297 54.78637695 C86.69412074 59.34535518 85.52530477 63.87458992 84.26654053 68.38616943 C83.85473994 69.86337818 83.44646012 71.34157552 83.04263306 72.82098389 C81.96652262 76.72209266 80.82116521 80.55537355 79.45532227 84.36523438 C72.91762282 103.91583541 74.20180779 124.43823685 74.29931641 144.78985596 C74.33415853 152.77821886 74.32776909 160.76641968 74.3031826 168.75479698 C74.30083667 171.51677971 74.31848576 174.27809419 74.3384552 177.03999329 C74.37219254 190.55060811 73.08667218 201.82909165 63.125 211.89453125 C58.50995316 216 58.50995316 216 56 216 C56 232.83 56 249.66 56 267 C22.01 267 -11.98 267 -47 267 C-46.875 241 -46.875 241 -46.75732422 232.8359375 C-46.7691732 230.68226639 -46.78471558 228.5286111 -46.8046875 226.375 C-46.77511963 225.2715625 -46.74555176 224.168125 -46.71508789 223.03125 C-46.80013252 218.24291419 -46.89462823 215.21837188 -50.19415283 211.58154297 C-52.82016536 209.43775738 -52.82016536 209.43775738 -55.54324341 207.66894531 C-64.2871103 201.7289854 -69.67792428 188.68938751 -73 179 C-73 177.68 -73 176.36 -73 175 C-73.66 175 -74.32 175 -75 175 C-76.234375 173.7421875 -76.234375 173.7421875 -77.75 171.875 C-81.29382429 167.69090493 -85.10180177 163.84852987 -89 160 C-93.88424592 155.16234365 -98.56382364 150.25516277 -103 145 C-104.83739661 142.95088691 -106.67510882 140.90216781 -108.51953125 138.859375 C-111.49261921 135.12536479 -112.51932992 132.001531 -112.375 127.1484375 C-111.14351114 120.09303258 -105.54976843 115.04000775 -100 111 C-96.07357675 109.03678838 -92.26483625 109.28132526 -88 110 C-71.95930668 115.70382604 -58.82933369 127.12571143 -47 139 C-48.69191086 118.56949296 -50.48736865 98.20979238 -54 78 C-54.12797974 77.26359283 -54.25595947 76.52718567 -54.38781738 75.76846313 C-55.01294131 72.19077843 -55.64743473 68.61483384 -56.28613281 65.03955078 C-57.386916 58.85028703 -58.39365048 52.64670047 -59.375 46.4375 C-59.62636719 44.9225293 -59.62636719 44.9225293 -59.8828125 43.37695312 C-62.38982326 27.43798385 -62.38982326 27.43798385 -59.8125 21.0625 C-55.748722 16.43820089 -52.44342097 14.20361841 -46.25 13.6875 C-41.78556463 13.76136014 -38.34751801 15.01911491 -35 18 C-31.31540709 22.57679563 -30.22304696 26.66716653 -29.5625 32.375 C-29.32615794 34.15130076 -29.08772233 35.92732371 -28.84765625 37.703125 C-28.65260498 39.18522461 -28.65260498 39.18522461 -28.45361328 40.69726562 C-27.65861755 46.48558764 -26.74015382 52.25497258 -25.83062744 58.02618408 C-25.50131206 60.11667107 -25.17401846 62.20746618 -24.84716797 64.29833984 C-23.29539772 74.20981265 -21.68936081 84.11105869 -20 94 C-18.515 94.495 -18.515 94.495 -17 95 C-17.26427842 90.02046312 -17.53590727 85.04136561 -17.8125 80.0625 C-17.85501892 79.29656525 -17.89753784 78.53063049 -17.94134521 77.7414856 C-18.78379879 62.70840837 -19.86284554 47.6965607 -21.03442383 32.68579102 C-22.89812553 8.51114298 -22.89812553 8.51114298 -19 3 C-13.23594554 -1.30754608 -6.89846123 -0.86534039 0 0 Z " fill="#FA9867" transform="translate(138,4)"/>
<path d="M0 0 C2.94163796 1.3881887 5.52895726 3.0057878 8.1875 4.875 C18.10977329 11.5717158 27.03756225 13.98498946 39 13 C43.44672976 11.94921531 47.70775367 10.55797279 52 9 C52.99 8.67 53.98 8.34 55 8 C55 24.5 55 41 55 58 C21.01 58 -12.98 58 -48 58 C-48 40.51 -48 23.02 -48 5 C-42.06 7.475 -42.06 7.475 -36 10 C-25.5454738 12.61363155 -16.52335803 10.90098345 -7 6 C-4.36860551 4.15196472 -2.28374124 2.28374124 0 0 Z " fill="#FC8F5C" transform="translate(139,213)"/>
<path d="M0 0 C3.57131476 1.55804217 5.40153138 3.75891778 7.10546875 7.29248047 C8.10721857 10.32452346 8.38258908 12.94465702 8.5625 16.1328125 C8.6361377 17.3904541 8.70977539 18.6480957 8.78564453 19.94384766 C8.85752886 21.33754286 8.92896642 22.73126117 9 24.125 C9.08030138 25.58253416 9.16087586 27.04005329 9.24169922 28.49755859 C10.43608903 50.65116739 11.18275591 72.83008042 12 95 C0.78 95.33 -10.44 95.66 -22 96 C-22 93.03 -22 90.06 -22 87 C-21.67 87 -21.34 87 -21 87 C-20.67 89.31 -20.34 91.62 -20 94 C-19.01 94.33 -18.02 94.66 -17 95 C-17.26427842 90.02046312 -17.53590727 85.04136561 -17.8125 80.0625 C-17.85501892 79.29656525 -17.89753784 78.53063049 -17.94134521 77.7414856 C-18.78379879 62.70840837 -19.86284554 47.6965607 -21.03442383 32.68579102 C-22.89812553 8.51114298 -22.89812553 8.51114298 -19 3 C-13.23594554 -1.30754608 -6.89846123 -0.86534039 0 0 Z " fill="#F28E5D" transform="translate(138,4)"/>
<path d="M0 0 C4.00241148 2.00120574 6.77086781 4.12297066 9 8 C9.28390522 10.81768302 9.3747611 13.37318398 9.3125 16.1875 C9.3026709 17.04843262 9.2928418 17.90936523 9.28271484 18.79638672 C9.0643433 30.63538999 8.21183492 42.45719421 7.43531799 54.2701416 C6.92248953 62.0992758 6.46417911 69.9314498 6.00872803 77.76409912 C5.83527719 80.74522108 5.66033743 83.72625488 5.4854126 86.70729065 C5.32325854 89.47150664 5.16160938 92.23575211 5 95 C-4.4078733 94.33115971 -13.66172387 93.30910413 -23 92 C-23.14383362 78.68100669 -22.75923134 65.41054979 -22.20043945 52.10375977 C-22.06226798 48.80696396 -21.93012437 45.50996669 -21.79882812 42.21289062 C-21.59086536 37.04546483 -21.36035558 31.87940203 -21.11895752 26.71343994 C-21.01094822 24.24973066 -20.92709496 21.78663733 -20.85107422 19.32177734 C-20.79601205 17.989226 -20.74025251 16.65670317 -20.68359375 15.32421875 C-20.6467749 14.22553467 -20.60995605 13.12685059 -20.57202148 11.99487305 C-19.69618286 7.40933639 -17.35698507 4.23362279 -13.9375 1.125 C-9.31545511 -0.64514485 -4.88061099 -0.6521815 0 0 Z " fill="#F3905E" transform="translate(178,7)"/>
<path d="M0 0 C2.94163796 1.3881887 5.52895726 3.0057878 8.1875 4.875 C18.10977329 11.5717158 27.03756225 13.98498946 39 13 C43.44672976 11.94921531 47.70775367 10.55797279 52 9 C52.99 8.67 53.98 8.34 55 8 C55 16.58 55 25.16 55 34 C54.67 34 54.34 34 54 34 C54 30.7 54 27.4 54 24 C52.68 24.33 51.36 24.66 50 25 C33.23691752 26.25783592 16.355124 22.35640217 2.9375 12.0390625 C1.09765946 10.83197635 1.09765946 10.83197635 -0.8203125 11.12109375 C-4.56718583 12.63192977 -8.11373574 14.51899122 -11.69140625 16.38476562 C-20.68798624 21.00014777 -28.96432372 22.17359794 -38.9375 22.0625 C-39.71673828 22.05798828 -40.49597656 22.05347656 -41.29882812 22.04882812 C-43.19925268 22.03716908 -45.09963706 22.01923877 -47 22 C-47 25.3 -47 28.6 -47 32 C-47.33 32 -47.66 32 -48 32 C-48 23.09 -48 14.18 -48 5 C-42.06 7.475 -42.06 7.475 -36 10 C-25.5454738 12.61363155 -16.52335803 10.90098345 -7 6 C-4.36860551 4.15196472 -2.28374124 2.28374124 0 0 Z " fill="#EB8451" transform="translate(139,213)"/>
<path d="M0 0 C14.56013875 -0.49427289 28.04104032 0.15811961 42.25488281 3.37939453 C47.28312383 4.5161598 52.32998248 5.56567252 57.375 6.625 C58.38240234 6.83882324 59.38980469 7.05264648 60.42773438 7.27294922 C68.25269867 8.91022396 76.05111183 10.14651361 84 11 C83.67 11.66 83.34 12.32 83 13 C69.65292782 13.21840664 56.33184577 12.56539296 43 12 C43.47195801 12.51731689 43.94391602 13.03463379 44.43017578 13.56762695 C47.73761616 17.25656362 50.73922099 20.67290506 52.875 25.1875 C53.26429688 25.98542969 53.65359375 26.78335938 54.0546875 27.60546875 C55.73537932 31.86275835 56.12319337 35.760497 56.0625 40.3125 C56.05347656 41.19550781 56.04445312 42.07851562 56.03515625 42.98828125 C56.02355469 43.65214844 56.01195312 44.31601563 56 45 C54.15674494 42.23511741 52.7559218 39.44915914 51.33666992 36.45288086 C44.62530928 22.42701704 35.99736142 13.39905011 21 8 C16.43734028 6.86141278 11.86424352 6.67662938 7.1875 6.4375 C6.39923828 6.39431641 5.61097656 6.35113281 4.79882812 6.30664062 C2.86605785 6.20121679 0.93304974 6.10016906 -1 6 C-0.67 4.02 -0.34 2.04 0 0 Z " fill="#F08956" transform="translate(91,138)"/>
<path d="M0 0 C0.33 0 0.66 0 1 0 C1 2.31 1 4.62 1 7 C1.66 7 2.32 7 3 7 C2.67 8.98 2.34 10.96 2 13 C1.34 13 0.68 13 0 13 C0 8.71 0 4.42 0 0 Z " fill="#4B3A31" transform="translate(183,89)"/>
</g>
</svg>