<?xml version="1.0" encoding="UTF-8"?>
<svg version="1.1" xmlns="http://www.w3.org/2000/svg" width="320" height="320" viewBox="0 0 320 320" preserveAspectRatio="xMidYMid meet">
<g transform='translate(26.5 11)'>
<path d="M0 0 C7.64269424 6.03543236 11.02305646 14.02641381 12.8203125 23.4375 C13.09468921 27.46768906 13.08168819 31.40795809 12.8203125 35.4375 C13.3771875 35.37949219 13.9340625 35.32148437 14.5078125 35.26171875 C20.97315894 34.87947698 24.90609033 36.21937272 29.8203125 40.4375 C36.42219471 46.6277175 38.08563156 54.88399521 39.8203125 63.4375 C39.97129395 64.17468262 40.12227539 64.91186523 40.27783203 65.67138672 C45.02830835 89.74149164 43.84073614 111.05634917 30.8203125 132.4375 C28.08610755 136.38860435 25.09077617 139.92188196 21.8203125 143.4375 C20.96050781 144.38882813 20.10070312 145.34015625 19.21484375 146.3203125 C9.30239756 156.95074881 -2.86818869 166.4958868 -16.1796875 172.4375 C-17.1696875 172.4375 -18.1596875 172.4375 -19.1796875 172.4375 C-19.19950684 173.56430176 -19.21932617 174.69110352 -19.23974609 175.85205078 C-19.31750459 180.15024237 -19.40591123 184.44816729 -19.49707031 188.74609375 C-19.53467486 190.58425524 -19.56962732 192.42247346 -19.6015625 194.26074219 C-19.6487498 196.94746891 -19.70643014 199.63382616 -19.765625 202.3203125 C-19.77717621 203.10358917 -19.78872742 203.88686584 -19.80062866 204.69387817 C-20.05098185 215.01545938 -21.23932882 225.09355457 -22.1796875 235.4375 C-59.7996875 235.4375 -97.4196875 235.4375 -136.1796875 235.4375 C-136.1796875 226.44430272 -136.1796875 226.44430272 -135.4453125 222.13671875 C-135.28506592 221.17233887 -135.12481934 220.20795898 -134.9597168 219.21435547 C-134.78480713 218.19486816 -134.60989746 217.17538086 -134.4296875 216.125 C-134.0653264 213.91293801 -133.70208636 211.70069114 -133.33984375 209.48828125 C-133.1505127 208.34053223 -132.96118164 207.1927832 -132.76611328 206.01025391 C-131.77116486 199.94860731 -130.80554208 193.88315587 -129.8671875 187.8125 C-129.68381836 186.68158936 -129.50044922 185.55067871 -129.31152344 184.38549805 C-127.60765486 175.22375674 -127.60765486 175.22375674 -130.37890625 166.6796875 C-130.87003906 166.22851562 -131.36117187 165.77734375 -131.8671875 165.3125 C-147.00889356 149.00604732 -146.53379032 121.38273736 -146.44042969 100.4753418 C-146.42974004 97.6389408 -146.44037391 94.80317844 -146.453125 91.96679688 C-146.46210259 82.966665 -146.23989521 74.01622899 -145.4140625 65.05078125 C-145.35333557 64.29717819 -145.29260864 63.54357513 -145.2300415 62.76713562 C-144.54338321 56.31077885 -142.43179168 50.81472108 -137.9296875 46.0625 C-134.38152368 43.96585774 -131.21360113 43.25795701 -127.1796875 42.4375 C-127.09332031 41.79683594 -127.00695312 41.15617187 -126.91796875 40.49609375 C-125.93853736 34.46675004 -124.69917704 29.72774007 -120.1796875 25.4375 C-112.83760063 20.22217999 -106.20195515 19.26292202 -97.3046875 19.375 C-96.61632812 19.37951172 -95.92796875 19.38402344 -95.21875 19.38867188 C-93.53902415 19.40033664 -91.85934375 19.41826729 -90.1796875 19.4375 C-89.88578125 18.66535156 -89.591875 17.89320312 -89.2890625 17.09765625 C-86.97541424 11.54978841 -83.34402687 8.37408513 -78.1796875 5.4375 C-72.2475848 3.28453608 -66.82670021 3.16654885 -60.5546875 3.25 C-59.1625 3.2509668 -59.1625 3.2509668 -57.7421875 3.25195312 C-50.83091829 3.29651002 -50.83091829 3.29651002 -47.55444336 4.00585938 C-44.22892475 4.61031264 -42.40014654 3.53614084 -39.3671875 2.125 C-28.2990273 -2.97775814 -11.31965977 -6.39227846 0 0 Z " fill="#F2834F" transform="translate(187.1796875,41.5625)"/>
<path d="M0 0 C8.38114501 6.67853759 10.66721771 15.00213647 12.73046875 25.17578125 C12.8814502 25.91296387 13.03243164 26.65014648 13.18798828 27.40966797 C17.9384646 51.47977289 16.75089239 72.79463042 3.73046875 94.17578125 C0.9962638 98.1268856 -1.99906758 101.66016321 -5.26953125 105.17578125 C-6.12933594 106.12710938 -6.98914063 107.0784375 -7.875 108.05859375 C-19.12551093 120.1284031 -36.55193894 135.8296217 -53.83203125 136.55078125 C-60.57262225 136.46221874 -65.92486814 133.99349525 -71.0546875 129.671875 C-80.14442948 120.0241949 -81.67793821 108.05210791 -81.48046875 95.4140625 C-81.16232685 86.50019776 -78.20233066 78.88665271 -72.26953125 72.17578125 C-60.98422108 62.0942375 -43.10741263 52.06684722 -27.515625 52.640625 C-24.13425771 53.44627251 -22.27591089 55.34971511 -19.875 57.7734375 C-17.54450542 59.80907632 -15.29151645 60.02836734 -12.26953125 60.17578125 C-12.69105469 59.74007812 -13.11257812 59.304375 -13.546875 58.85546875 C-17.0331832 55.06564666 -19.00834088 52.53018391 -19.26953125 47.17578125 C-18.46515625 46.74265625 -17.66078125 46.30953125 -16.83203125 45.86328125 C-13.99106771 44.37104123 -13.99106771 44.37104123 -13.26953125 41.17578125 C-14.43226563 41.46453125 -15.595 41.75328125 -16.79296875 42.05078125 C-30.79448977 45.3653789 -48.12728401 49.13091144 -61.26953125 41.17578125 C-65.94358936 37.17486336 -68.90301757 32.58388246 -69.5703125 26.37890625 C-69.59878123 19.20478707 -69.60080876 11.61451932 -64.33203125 6.17578125 C-60.67788688 4.40407489 -57.18220789 4.02167648 -53.15625 3.78125 C-39.54287335 2.94774621 -39.54287335 2.94774621 -26.26953125 0.05078125 C-18.10981763 -2.39621291 -7.73401722 -4.31515656 0 0 Z " fill="#FC9563" transform="translate(214.26953125,79.82421875)"/>
<path d="M0 0 C8.18198451 2.95087966 15.79930962 7.90905635 22 14 C22 14.66 22 15.32 22 16 C22.66 16 23.32 16 24 16 C32.7195362 26.15781021 39.64288351 39.35728917 39.24609375 52.96484375 C38.69346023 57.53503525 36.35917109 59.67139666 33.0625 62.6875 C28.46887272 66.15615733 25.25220517 67.58887382 19.5 67.4375 C11.02205463 65.95385956 5.01834813 59.54711644 0 53 C0 56.56422956 0.84269616 57.65332498 2.8125 60.5625 C3.33457031 61.34753906 3.85664062 62.13257813 4.39453125 62.94140625 C6.00752668 65.23250515 6.00752668 65.23250515 9 67 C8.46930939 70.82097239 7.50298434 73.06171403 5 76 C7.98791956 75.00402681 9.68023487 74.4181544 11.625 71.875 C15.05871647 69.16417121 17.94100147 69.89577893 22.19140625 70.03125 C28.62143513 69.95970587 32.57480001 67.56149757 37.1875 63.25 C37.79980469 62.61578125 38.41210938 61.9815625 39.04296875 61.328125 C41 60 41 60 43.40234375 60.10546875 C54.04324736 63.76977992 61.80080025 71.43315333 66.875 81.25 C71.29988896 90.45142472 71.63117534 102.12498155 68.5625 111.875 C64.33204278 121.81582704 55.11575094 130.36610108 45.3125 134.8125 C34.40136113 138.72404035 19.8325432 138.87754227 9.1796875 134.21484375 C5.99205175 132.43822239 3.55169791 130.62066272 1 128 C1 127.34 1 126.68 1 126 C0.40058594 125.74089844 -0.19882812 125.48179687 -0.81640625 125.21484375 C-8.55748879 120.90808763 -12.50691957 109.99409662 -14.90625 101.96875 C-18.58991458 87.08674511 -19.32884121 72.28809476 -19.26074219 57.0378418 C-19.25005254 54.2014408 -19.26068641 51.36567844 -19.2734375 48.52929688 C-19.28241509 39.529165 -19.06020771 30.57872899 -18.234375 21.61328125 C-18.14328461 20.48287666 -18.14328461 20.48287666 -18.050354 19.32963562 C-17.34946119 12.7394377 -15.29129217 7.12762845 -10.375 2.5625 C-6.60937029 0.08511203 -4.53928705 -0.30700492 0 0 Z " fill="#FB9361" transform="translate(60,85)"/>
<path d="M0 0 C1.7705771 1.49392443 3.50000482 3.03782846 5.1875 4.625 C6.074375 5.43066406 6.96125 6.23632812 7.875 7.06640625 C17.99569911 16.69010674 25.60044938 28.01293103 26.390625 42.296875 C26.74337199 60.35972561 26.74337199 60.35972561 19.75 67.6875 C15.31800768 71.2545124 11.35252458 71.25188986 5.82421875 70.96875 C3.1875 70.625 3.1875 70.625 0.1875 69.625 C-0.55129313 67.14627368 -1.11841672 64.77662344 -1.625 62.25 C-4.9733847 47.43977363 -13.50504998 34.63784032 -25.8125 25.625 C-30.88317992 22.6873265 -36.03008761 19.81994033 -41.8125 18.625 C-42.55906046 12.77694309 -41.15883119 9.47121767 -37.72265625 4.7109375 C-28.99451407 -4.82040795 -10.54747282 -7.46737036 0 0 Z " fill="#FC9665" transform="translate(102.8125,64.375)"/>
<path d="M0 0 C1.35448242 -0.04930664 1.35448242 -0.04930664 2.73632812 -0.09960938 C9.29545072 -0.15185438 13.50719304 1.21883994 18.5625 5.4375 C23.48664338 10.47147557 26.36715917 16.8055988 29 23.25 C29.38889404 24.20108643 29.38889404 24.20108643 29.78564453 25.17138672 C31.14654005 28.7115857 31.85871445 31.6445101 31.5625 35.4375 C30.97082031 35.59605469 30.37914062 35.75460938 29.76953125 35.91796875 C23.23726394 37.84674588 19.49073442 40.13932774 15.95703125 46.18359375 C12.94932095 53.20158446 13.59899494 61.72536088 16.0625 68.875 C18.61994424 74.44986046 23.08322234 78.69786117 28.5625 81.4375 C28.00247584 84.97409092 26.88475676 86.39309692 24.125 88.625 C23.50753906 89.13417969 22.89007813 89.64335937 22.25390625 90.16796875 C18.30056975 93.13525365 14.34982354 93.02386681 9.5625 92.4375 C4.08549606 89.69899803 4.08549606 89.69899803 2.78515625 86.5625 C2.49911334 83.83254661 3.24156269 82.61115705 4.5 80.1875 C8.62094682 70.4523016 7.64521278 59.01325885 3.8828125 49.3046875 C-2.90708955 34.55975227 -12.55653951 22.52042856 -27.4375 15.4375 C-26.49179638 9.5268524 -24.5936841 7.20504949 -19.80078125 3.69921875 C-13.43490278 0.3005762 -7.04491001 0.04506339 0 0 Z " fill="#FB9565" transform="translate(126.4375,44.5625)"/>
<path d="M0 0 C1.52901993 2.83775732 2.45782014 5.50706131 3.25 8.625 C5.87827293 17.52170386 9.91518506 24.29610767 18 29 C24.11417203 31.8046798 24.11417203 31.8046798 36 31 C35.67 44.2 35.34 57.4 35 71 C34.67 71 34.34 71 34 71 C34 62.09 34 53.18 34 44 C32.35 44.66 30.7 45.32 29 46 C16.24337525 47.38933537 6.07313374 43.74007616 -4 36 C-6.25034879 33.76699494 -8.08324926 31.53839963 -10 29 C-14.06450567 31.95109055 -17.96561891 34.92947885 -21.625 38.375 C-34.1483218 49.42787306 -48.84933907 54.45000066 -65.37109375 54.43359375 C-69.19383565 53.97683987 -71.69459132 52.92602638 -75 51 C-74.90912109 50.03513672 -74.90912109 50.03513672 -74.81640625 49.05078125 C-74.13534888 41.70583942 -73.54964364 34.35586909 -73 27 C-72.34 27 -71.68 27 -71 27 C-69.33333333 28.66666667 -67.66666667 30.33333333 -66 32 C-59.35006376 36.7249547 -52.52768729 37.34406025 -44.625 37.3125 C-43.82578125 37.32861328 -43.0265625 37.34472656 -42.203125 37.36132812 C-31.08088484 37.3703267 -20.86492221 32.86409741 -12.75 25.3125 C-6.03945191 18.20251453 -3.09815398 9.10407258 0 0 Z " fill="#E07646" transform="translate(132,184)"/>
<path d="M0 0 C5.71737319 4.56655289 10.5383943 11.15878689 11.82421875 18.45703125 C12.04678988 23.13608351 12.00168383 27.77721149 11.82421875 32.45703125 C0.12714711 36.34347764 -10.81684313 38.85595606 -23.17578125 38.45703125 C-23.82933594 36.68199219 -23.82933594 36.68199219 -24.49609375 34.87109375 C-30.18144109 19.37734564 -30.18144109 19.37734564 -40.17578125 6.45703125 C-39.26984269 3.20535894 -38.76280859 1.78961654 -35.76953125 0.09375 C-25.04699079 -3.19612037 -10.33085104 -5.74387199 0 0 Z " fill="#FA9566" transform="translate(187.17578125,41.54296875)"/>
<path d="M0 0 C1.29611206 0.0314209 1.29611206 0.0314209 2.6184082 0.06347656 C3.55620117 0.07636719 4.49399414 0.08925781 5.46020508 0.10253906 C6.43666992 0.13605469 7.41313477 0.16957031 8.41918945 0.20410156 C9.40725586 0.22214844 10.39532227 0.24019531 11.41333008 0.25878906 C13.85375788 0.30594709 16.29223715 0.37174114 18.73168945 0.45410156 C19.6992354 9.16303034 19.83799372 17.70171697 19.73168945 26.45410156 C16.29536198 27.59954405 13.4773699 27.69388176 9.85668945 27.76660156 C8.64239258 27.80398437 7.4280957 27.84136719 6.17700195 27.87988281 C2.12168072 27.378715 0.58942975 26.31184186 -2.26831055 23.45410156 C-5.82470569 17.56765443 -6.24306069 11.22957072 -5.26831055 4.45410156 C-3.75727967 1.79172263 -3.06129629 0.61285234 0 0 Z " fill="#FCAF86" transform="translate(154.268310546875,84.5458984375)"/>
</g>
</svg>