<?xml version="1.0" encoding="UTF-8"?>
<svg version="1.1" xmlns="http://www.w3.org/2000/svg" width="261" height="297" viewBox="0 0 261 297">
<path d="M0 0 C86.13 0 172.26 0 261 0 C261 98.01 261 196.02 261 297 C174.87 297 88.74 297 0 297 C0 198.99 0 100.98 0 0 Z " fill="#312927" transform="translate(0,0)"/>
<path d="M0 0 C4.2968299 2.89786202 7.71791953 5.96218827 9.6875 10.8125 C10.52861362 18.40262276 9.19347993 25.77299437 7.6875 33.1875 C7.23367603 35.53086335 6.78203018 37.87464911 6.33203125 40.21875 C6.20754105 40.86206268 6.08305084 41.50537537 5.95478821 42.16818237 C4.19349158 51.30237848 2.56001336 60.46008206 0.92456055 69.61749268 C0.38010671 72.65897242 -0.17019038 75.69935805 -0.72070312 78.73974609 C-1.06023221 80.63633304 -1.39943913 82.5329777 -1.73828125 84.4296875 C-1.89742508 85.30258423 -2.05656891 86.17548096 -2.22053528 87.0748291 C-2.92152113 91.03374062 -3.52021954 94.77253543 -3.3125 98.8125 C6.85516709 84.07706887 16.91032697 69.26536044 26.96777344 54.45458984 C31.2720447 48.11630359 35.57937802 41.78012432 39.89306641 35.44824219 C40.99829377 33.82483611 42.10238489 32.20065495 43.20458984 30.57519531 C45.65798055 26.95731672 48.13693839 23.36306153 50.6875 19.8125 C51.21085938 19.0803125 51.73421875 18.348125 52.2734375 17.59375 C55.72663724 13.13565087 59.16950989 11.04241346 64.6875 9.8125 C70.73732729 9.08652072 74.45601006 11.30754167 79.375 14.625 C83.14583208 18.19200332 84.83853294 21.79821007 85.3125 26.9375 C84.81783779 37.62573703 74.90296526 47.96457859 68.92724609 56.34301758 C65.98057252 60.47935996 63.12764816 64.642964 60.421875 68.94140625 C55.77903258 76.31483657 50.84455924 83.48867302 45.9375 90.6875 C44.51657097 92.77275321 43.09616152 94.85835039 41.6774292 96.94509888 C40.80279684 98.2315289 39.92693639 99.51712515 39.04962158 100.80172729 C36.82031586 104.08030073 34.68845277 107.38956263 32.6875 110.8125 C33.5125 110.85375 34.3375 110.895 35.1875 110.9375 C41.14701846 112.42737962 45.11474813 116.08247294 49.1875 120.5625 C52.03389086 126.72968019 51.2714854 132.60577404 49.1875 138.9375 C48.70264777 140.23492865 48.20830741 141.52908174 47.6875 142.8125 C48.5125 142.85375 49.3375 142.895 50.1875 142.9375 C55.88445635 144.36173909 59.82272698 147.2826995 63.30859375 152.01171875 C68.11186053 160.46165833 67.79438093 168.38315475 65.29638672 177.59521484 C58.63650342 199.7966061 43.44160736 221.09124507 23.16015625 232.7265625 C19.30183377 234.42105484 15.88084496 234.67723081 11.6875 234.8125 C11.130625 236.5759375 11.130625 236.5759375 10.5625 238.375 C8.1825273 245.27692083 5.39892617 252.03393457 2.6875 258.8125 C-31.3025 258.8125 -65.2925 258.8125 -100.3125 258.8125 C-99.03323898 253.05582541 -97.73972953 247.66694961 -95.8515625 242.13671875 C-95.6197226 241.44544388 -95.38788269 240.75416901 -95.14901733 240.04194641 C-94.41612364 237.85982904 -93.67698859 235.6798901 -92.9375 233.5 C-92.450096 232.05287739 -91.96311411 230.60561254 -91.4765625 229.15820312 C-91.23798523 228.44955109 -90.99940796 227.74089905 -90.75360107 227.01077271 C-90.28010644 225.60325155 -89.80747999 224.19543802 -89.33575439 222.787323 C-88.26624246 219.60257199 -87.17519501 216.43221029 -86.03417969 213.27197266 C-85.4719873 211.69295166 -85.4719873 211.69295166 -84.8984375 210.08203125 C-84.56634277 209.17686768 -84.23424805 208.2717041 -83.89208984 207.33911133 C-83.22183857 204.41727877 -83.51698314 202.68267888 -84.3125 199.8125 C-84.60205566 198.75011108 -84.60205566 198.75011108 -84.89746094 197.66625977 C-85.11176758 196.95268311 -85.32607422 196.23910645 -85.546875 195.50390625 C-85.90990723 194.27534912 -85.90990723 194.27534912 -86.28027344 193.02197266 C-86.5384082 192.14847168 -86.79654297 191.2749707 -87.0625 190.375 C-89.58820241 181.70954464 -91.73856948 173.00336213 -93.66308594 164.18579102 C-93.85161133 163.32268311 -94.04013672 162.4595752 -94.234375 161.5703125 C-94.41339355 160.74966309 -94.59241211 159.92901367 -94.77685547 159.08349609 C-95.24656917 157.09202988 -95.82943033 155.12795781 -96.4296875 153.171875 C-98.61657786 144.85007984 -98.75253239 134.42108357 -94.5625 126.75390625 C-94.15 126.11324219 -93.7375 125.47257812 -93.3125 124.8125 C-92.9 124.14089844 -92.4875 123.46929687 -92.0625 122.77734375 C-88.75064555 117.89424017 -84.68651494 114.44818007 -80.01953125 110.88671875 C-77.20941197 108.73351047 -74.51712379 106.47131952 -71.8125 104.1875 C-69.98845565 102.71756482 -68.15546528 101.25864183 -66.3125 99.8125 C-65.12914063 98.87083984 -65.12914063 98.87083984 -63.921875 97.91015625 C-56.70719087 92.83359871 -49.81221729 93.20052036 -41.3125 93.8125 C-41.13074219 92.1728125 -41.13074219 92.1728125 -40.9453125 90.5 C-40.28166006 85.21852902 -39.24456337 80.02731798 -38.1875 74.8125 C-37.97230713 73.74233643 -37.75711426 72.67217285 -37.53540039 71.56958008 C-35.41903911 61.14822788 -33.1519234 50.75999779 -30.82958984 40.3828125 C-29.51302907 34.4770437 -28.23183228 28.5807114 -27.22265625 22.61328125 C-24.62348064 7.30793161 -24.62348064 7.30793161 -19.09375 2.0546875 C-13.11162512 -2.11705749 -6.85327082 -2.45683294 0 0 Z " fill="#F28956" transform="translate(133.3125,17.1875)"/>
<path d="M0 0 C21.59010792 0.77802191 37.72841101 11.11063965 55 23 C53.79618552 25.49361571 52.54571278 27.68143083 51 30 C51.33 30.33 51.66 30.66 52 31 C53.24447647 40.27843847 51.17021104 47.27899899 46 55 C39.771541 62.51863979 31.262569 64.00758189 22 65 C20.64162574 66.14182348 20.64162574 66.14182348 20.75 69.1875 C21.11835493 74.80491268 22.85112256 77.71101555 26.5625 81.875 C30.02841725 84.54574421 33.32755949 84.64297834 37.59765625 84.4375 C41.05371953 83.80810311 43.29587287 82.17649257 46 80 C46.99 79.67 47.98 79.34 49 79 C49.29519531 78.40832031 49.59039062 77.81664062 49.89453125 77.20703125 C51.33634899 74.32849052 53.25452536 72.78514888 55.6875 70.6875 C58.76100292 67.99322412 61.76793345 65.29804961 64.625 62.375 C67.57923978 59.37244321 70.67865185 56.5946435 73.8671875 53.84375 C76.26432953 51.77149536 78.63334823 49.66948778 81 47.5625 C82.1446875 46.54349609 82.1446875 46.54349609 83.3125 45.50390625 C83.869375 45.00761719 84.42625 44.51132813 85 44 C85.33 45.32 85.66 46.64 86 48 C86.825 48.04125 87.65 48.0825 88.5 48.125 C94.19695635 49.54923909 98.13522698 52.4701995 101.62109375 57.19921875 C106.42436053 65.64915833 106.10688093 73.57065475 103.60888672 82.78271484 C96.94900342 104.9841061 81.75410736 126.27874507 61.47265625 137.9140625 C57.61433377 139.60855484 54.19334496 139.86473081 50 140 C49.443125 141.7634375 49.443125 141.7634375 48.875 143.5625 C46.4950273 150.46442083 43.71142617 157.22143457 41 164 C7.01 164 -26.98 164 -62 164 C-60.72073898 158.24332541 -59.42722953 152.85444961 -57.5390625 147.32421875 C-57.3072226 146.63294388 -57.07538269 145.94166901 -56.83651733 145.22944641 C-56.10362364 143.04732904 -55.36448859 140.8673901 -54.625 138.6875 C-54.137596 137.24037739 -53.65061411 135.79311254 -53.1640625 134.34570312 C-52.22125384 131.54271648 -51.27619033 128.74050806 -50.32910156 125.93896484 C-48.53609475 120.63152833 -46.766385 115.31634764 -45 110 C-41.94812872 111.438806 -40.35510367 112.57315412 -38.375 115.3125 C-34.10017623 120.3330547 -29.52583389 123.43080318 -22.84912109 124.27050781 C-12.53824508 125.03144239 -2.49045257 124.98779916 6.0078125 118.45703125 C11.35203513 113.57120428 15.06362785 107.72440705 15.53125 100.37890625 C15.54803822 98.77349148 15.53701298 97.16757584 15.5 95.5625 C15.48791504 94.72283691 15.47583008 93.88317383 15.46337891 93.01806641 C15.26685444 86.90436877 14.41807878 82.16931667 11 77 C10.31164062 75.83597656 10.31164062 75.83597656 9.609375 74.6484375 C6.29194658 69.28817158 2.74799694 64.87399847 -3 62 C-4.52148326 61.91627341 -6.04655778 61.89269973 -7.5703125 61.90234375 C-8.91416016 61.90717773 -8.91416016 61.90717773 -10.28515625 61.91210938 C-11.22230469 61.92048828 -12.15945312 61.92886719 -13.125 61.9375 C-14.54232422 61.94426758 -14.54232422 61.94426758 -15.98828125 61.95117188 C-18.32558387 61.96297643 -20.66276061 61.97944241 -23 62 C-22.67 61.01 -22.34 60.02 -22 59 C-20.07421875 58.2265625 -20.07421875 58.2265625 -17.6875 57.625 C-13.39739172 56.32228032 -11.33060141 54.98144407 -9 51 C-8.22166466 48.81785432 -8.22166466 48.81785432 -8 47 C-5.20635188 47.61383192 -2.85645428 48.46113097 -0.3203125 49.77734375 C0.36160156 50.12603516 1.04351562 50.47472656 1.74609375 50.83398438 C3.15761066 51.56564222 4.56906965 52.29741181 5.98046875 53.02929688 C14.04162448 57.15096125 20.86575401 58.9944542 30 58 C37.79002613 55.38921226 42.38352537 48.97462965 46 42 C47.40566543 37.78300371 48.12827952 34.36930495 47 30 C45.12018059 28.12339741 45.12018059 28.12339741 42.625 26.6015625 C41.71516357 26.0034375 40.80532715 25.4053125 39.86791992 24.7890625 C35.38924053 21.99517788 30.8780804 19.2745149 26.3125 16.625 C24.38915132 15.49768855 22.46597509 14.37008283 20.54296875 13.2421875 C19.13990479 12.42186035 19.13990479 12.42186035 17.70849609 11.58496094 C13.83896674 9.32058519 9.97791754 7.042512 6.125 4.75 C5.49505127 4.37955566 4.86510254 4.00911133 4.21606445 3.62744141 C2.79360154 2.77969661 1.39362937 1.89435405 0 1 C0 0.67 0 0.34 0 0 Z " fill="#E37242" transform="translate(95,112)"/>
<path d="M0 0 C4.2327478 1.94467419 8.23965776 4.25470261 12.25 6.6171875 C13.05308594 7.08302246 13.85617188 7.54885742 14.68359375 8.02880859 C43.32934132 24.69652882 43.32934132 24.69652882 48.25 29.6171875 C49.68109134 37.48818984 46.68133067 43.92827201 42.4375 50.3671875 C37.25828077 55.69438442 32.41731095 58.72931875 24.875 58.9921875 C14.55544849 58.89248169 5.79431192 54.34342176 -2.7265625 48.8515625 C-4.82516763 47.46763263 -4.82516763 47.46763263 -7.75 46.6171875 C-7.79125 47.5040625 -7.8325 48.3909375 -7.875 49.3046875 C-8.98872941 53.52094884 -11.08792178 55.48165186 -14.75 57.6171875 C-17.06691454 58.33884941 -19.39848923 59.01778279 -21.75 59.6171875 C-22.245 60.6071875 -22.245 60.6071875 -22.75 61.6171875 C-20.8628125 61.3696875 -20.8628125 61.3696875 -18.9375 61.1171875 C-4.8843984 59.63208055 -4.8843984 59.63208055 0.5 62.1171875 C6.51809409 67.58818212 11.08052619 73.09156486 14.25 80.6171875 C14.60578125 81.33003906 14.9615625 82.04289062 15.328125 82.77734375 C17.7302233 90.17702793 17.54416599 100.18004696 15.375 107.6171875 C14.18258208 109.87650567 12.9161427 111.68463112 11.25 113.6171875 C10.74210937 114.25785156 10.23421875 114.89851563 9.7109375 115.55859375 C4.19198639 121.82299561 -2.01467484 124.42246184 -10.265625 125.03125 C-21.03000523 125.504046 -28.58232807 124.60187973 -37.1328125 117.69140625 C-48.20108821 107.11627154 -50.35297012 89.99978043 -53.58203125 75.66015625 C-54.29418915 72.51107374 -55.06599758 69.39834836 -55.94921875 66.29296875 C-59.06529761 55.25896277 -61.80656035 42.18379272 -56 31.55859375 C-55.5875 30.91792969 -55.175 30.27726562 -54.75 29.6171875 C-54.3375 28.94558594 -53.925 28.27398437 -53.5 27.58203125 C-50.18814555 22.69892767 -46.12401494 19.25286757 -41.45703125 15.69140625 C-38.64691197 13.53819797 -35.95462379 11.27600702 -33.25 8.9921875 C-31.42695996 7.52100694 -29.59397884 6.06203672 -27.75 4.6171875 C-26.54923828 3.67552734 -26.54923828 3.67552734 -25.32421875 2.71484375 C-17.32337893 -2.85038853 -9.11319763 -3.36049163 0 0 Z " fill="#FC9563" transform="translate(94.75,112.3828125)"/>
<path d="M0 0 C5.92918821 2.92491502 9.52147959 7.24552477 12.1484375 13.25 C16.11735129 26.06704269 10.36323994 40.07106217 4.5 51.5 C-3.79627687 66.80044412 -17.91662871 84.64143388 -34.78125 90.6328125 C-43.70846504 92.11020372 -53.91706767 92.45940971 -61.84765625 87.6875 C-68.74956991 82.27619927 -73.23766871 76.77612558 -74.40625 67.921875 C-74.67376633 58.87090573 -72.49799902 53.28646022 -66.66015625 46.42529297 C-62.25660946 42.64471853 -53.69033733 43.40338561 -48.16015625 43.64111328 C-44.85497265 44.19023398 -43.39278767 45.63327582 -41.3125 48.1875 C-40.74660156 49.01636719 -40.18070313 49.84523437 -39.59765625 50.69921875 C-37.09576047 54.30219336 -34.17997859 55.84961273 -30 57 C-26.86753447 57.35514577 -23.78842641 57.56030314 -20.63671875 57.62890625 C-17.61813595 58.05374383 -16.93352719 58.75710845 -15 61 C-14.34 61 -13.68 61 -13 61 C-13.185625 59.824375 -13.37125 58.64875 -13.5625 57.4375 C-13.57305397 54.4348966 -13.36369422 53.37420094 -11.2421875 51.19140625 C-9.66021744 50.03040111 -8.06140874 48.89209994 -6.44921875 47.7734375 C0.23849174 42.93098046 4.34600233 36.27431794 8 29 C7.505 29.495 7.505 29.495 7 30 C-2.66252405 39.33936271 -13.18731992 49.44243173 -26.9375 51.625 C-31.53194172 51.46379152 -34.08894678 48.94895001 -37.3359375 45.921875 C-39.80075845 43.07518038 -40.8878373 40.85991406 -41.375 37.125 C-40.23773314 27.64777617 -29.72305938 20.5500901 -22.9375 14.71875 C-21.02597424 13.02304166 -19.22795077 11.25992311 -17.4375 9.4375 C-16.29296506 8.29036974 -15.14713913 7.14452605 -14 6 C-13.13568359 5.12214844 -13.13568359 5.12214844 -12.25390625 4.2265625 C-8.26532685 0.44229786 -5.70345796 -1.20072799 0 0 Z " fill="#FB9160" transform="translate(187,161)"/>
<path d="M0 0 C3.05187128 1.438806 4.64489633 2.57315412 6.625 5.3125 C11.46254362 11.03394048 16.97025037 13.80716247 24.42578125 14.52734375 C28.61649093 14.82496574 32.79960774 14.94639871 37 15 C37 15.33 37 15.66 37 16 C33.04 16.495 33.04 16.495 29 17 C36.35856296 21.47285199 44.04459614 22.63713087 52.62890625 21.71875 C55 22 55 22 57.140625 24.046875 C57.83671875 24.93890625 58.5328125 25.8309375 59.25 26.75 C65.93137259 34.56886246 73.0856783 36.42695522 83 38 C82.69052329 39.93798521 82.37731166 41.87537426 82.0625 43.8125 C81.80146484 45.43091797 81.80146484 45.43091797 81.53515625 47.08203125 C81 50 81 50 80 53 C48.32 53 16.64 53 -16 53 C-15.28988765 47.31910124 -14.46700047 42.70081979 -12.63671875 37.421875 C-12.4034639 36.72918518 -12.17020905 36.03649536 -11.92988586 35.32281494 C-11.18951974 33.12939569 -10.4387995 30.93969521 -9.6875 28.75 C-9.19525889 27.29841584 -8.70371733 25.84659427 -8.21289062 24.39453125 C-7.26061129 21.58013633 -6.30458924 18.76706203 -5.34521484 15.95507812 C-3.53589385 10.6459261 -1.76509047 5.32399802 0 0 Z " fill="#F07E49" transform="translate(50,222)"/>
<path d="M0 0 C3.95164343 4.34680777 4.45876886 7.78397102 4.53125 13.4375 C3.25062968 19.61460979 -1.4586206 23.65576354 -6 27.6875 C-6.85331909 28.45960815 -6.85331909 28.45960815 -7.72387695 29.24731445 C-8.90180668 30.31310696 -10.08191204 31.37649977 -11.26416016 32.4375 C-13.42112212 34.37906914 -15.55665636 36.34314496 -17.69116211 38.30932617 C-22.71609936 42.93744997 -27.79129071 47.50778402 -32.8828125 52.0625 C-34.58783152 53.62281261 -36.21458151 55.20760679 -37.8125 56.875 C-41.62691198 60.58042878 -44.48853808 62.20982866 -49.8125 62.625 C-55.07527943 62.47553392 -57.79328115 60.52954175 -61.4375 56.86328125 C-65.11962911 52.47234229 -65.42637088 48.64941415 -65 43 C-62.34058387 40.34058387 -60.64509881 40.61425532 -56.9375 40.25 C-49.5474374 39.18844405 -44.13555902 36.93678295 -39.41015625 31.00390625 C-35.78489466 25.44517181 -33.72343871 20.59421717 -33.875 13.875 C-33.89304688 12.84117187 -33.91109375 11.80734375 -33.9296875 10.7421875 C-33.95289063 9.83726562 -33.97609375 8.93234375 -34 8 C-34 4.43666275 -32.923459 3.23688523 -30.625 0.625 C-27.06020522 -2.93979478 -23.20520082 -6.11791967 -18.5 -8 C-10.7773458 -8 -5.55686356 -5.11428151 0 0 Z " fill="#FB9564" transform="translate(180,135)"/>
<path d="M0 0 C4.16655742 0.53977236 7.36115456 1.46071171 11.0625 3.4375 C13.60451772 4.78280164 16.07367098 6.02944743 18.74609375 7.09765625 C21 8 21 8 22 9 C22.76432254 13.36755739 21.71677362 15.93142315 19.4375 19.5625 C16.53325412 23.59844733 13.58672519 26.92242426 9 29 C1.12970396 30.12432801 -4.81207656 26.37682389 -11 22 C-10.49844814 16.67501327 -7.65564273 12.64794605 -4.9375 8.1875 C-4.46505859 7.39923828 -3.99261719 6.61097656 -3.50585938 5.79882812 C-2.34368685 3.86187392 -1.17495583 1.92921705 0 0 Z " fill="#FDAE85" transform="translate(120,132)"/>
</svg>
